PathFileType	4	(X/Y/Z)	C:\Users\WrightLab\Desktop\Jo\P3_9.trc
DataRate	CameraRate	NumFrames	NumMarkers	Units	OrigDataRate	OrigDataStartFrame	OrigNumFrames
100.00	100.00	       12	19	mm	100.00	402	       535
Frame#	Time	Headset_Front			Headset_Back			Headset_Left			Headset_Right			Left_Shoulder			Right_Shoulder			Sternum			C7			Left Elbow			Right Elbow			Left Wrist			Right Wrist			Left ASIS			Right ASIS			S2			Left Knee			Right Knee			Left Ankle			Right Ankle			
		X1	Y1	Z1	X2	Y2	Z2	X3	Y3	Z3	X4	Y4	Z4	X5	Y5	Z5	X6	Y6	Z6	X7	Y7	Z7	X8	Y8	Z8	X9	Y9	Z9	X10	Y10	Z10	X11	Y11	Z11	X12	Y12	Z12	X13	Y13	Z13	X14	Y14	Z14	X15	Y15	Z15	X16	Y16	Z16	X17	Y17	Z17	X18	Y18	Z18	X19	Y19	Z19	

402	4.010				-752.15082	1591.55200	-482.03165	-801.46973	1507.77173	-614.47394	-590.92883	1451.33801	-553.27795	-942.36060	1301.06580	-488.71576	-595.61395	1307.06372	-414.59811	-751.32379	1177.92004	-572.85675	-775.14600	1359.34509	-407.52859	-1049.66345	986.23706	-522.13245	-529.50256	973.98737	-323.39310	-1051.28943	827.44928	-658.14124	-486.96353	768.35040	-416.43115	-861.25134	818.21503	-533.01672	-745.68799	908.92609	-320.76743				-863.36377	418.85727	-348.39865	-625.22308	423.84338	-602.48706	-840.73950	117.64562	-208.91985	-645.86316	100.77299	-688.10846	
403	4.020	-642.26770	1389.10718	-694.35272	-752.47687	1590.37744	-488.87549	-801.80328	1507.06287	-622.32050	-590.54803	1450.89758	-561.89746	-942.38831	1299.44788	-496.96997	-595.67688	1305.51501	-422.69727	-750.95251	1176.25671	-581.16315	-774.31006	1357.50037	-416.15854	-1048.55408	984.30670	-531.60504	-530.41687	972.25671	-332.29364	-1048.57874	825.95618	-667.65417	-487.58691	766.71820	-425.12173				-745.35974	907.15631	-328.60199				-863.89081	418.52081	-355.74661	-624.97760	423.11221	-611.73340	-841.27185	118.88855	-210.58379	-647.58630	97.32120	-689.76013	
404	4.030	-642.08624	1389.55774	-702.66516				-801.96338	1506.44751	-629.44958				-942.08435	1297.82434	-506.37662	-595.42767	1303.97205	-432.22940	-750.42786	1175.19409	-590.60846	-774.80884	1356.53394	-424.98761	-1046.94043	982.28204	-540.31842	-529.29425	970.66339	-341.78101	-1045.64429	824.59644	-676.93445	-486.68973	765.20966	-434.91147	-607.07532	828.89490	-548.03406	-745.37994	905.96222	-338.69138				-864.43439	417.15042	-362.81226	-624.97870	421.48746	-620.81885	-842.23425	120.49198	-212.97571	-647.98181	94.28814	-691.96637	
405	4.040	-640.90039	1407.50684	-768.70288	-752.85950	1588.53271	-504.26120	-802.14520	1505.80469	-637.40179				-941.24414	1295.89172	-515.15234	-594.74127	1302.77759	-438.99521	-749.51373	1174.73120	-599.82123	-773.82794	1355.14917	-433.41309	-1044.95496	980.51898	-548.88300	-528.65082	969.41724	-350.68091	-1042.72119	823.12476	-686.71405	-485.94562	764.21649	-445.36194				-745.37939	905.19452	-349.21414				-865.08893	416.70703	-372.05737	-625.75012	420.37042	-630.78296	-843.34930	122.35758	-215.37457	-650.09528	91.75304	-695.01318	
406	4.050	-640.61975	1408.43347	-778.59344	-752.99170	1587.60120	-511.56696	-802.03503	1505.67090	-645.07489				-940.94446	1295.25415	-524.57935	-594.16913	1301.99536	-448.28909	-748.74792	1173.53369	-608.68018	-773.48041	1353.97034	-441.10895	-1042.71826	978.10004	-557.86304	-528.58307	968.33795	-360.46878	-1039.45032	821.69556	-695.43640	-486.00858	763.47729	-455.17865	-859.00360	813.94684	-573.73401	-745.29907	902.72656	-358.68765				-865.80829	415.61743	-380.38898	-626.94867	418.57083	-639.25629	-844.62079	124.20460	-218.02206	-650.21930	90.66052	-700.67926	
407	4.060	-640.46448	1408.25598	-784.47009	-752.86011	1587.13782	-518.83789	-801.90765	1505.71826	-653.34528				-940.40155	1294.21704	-533.60132	-593.25116	1301.06653	-456.64551	-747.67725	1173.54578	-618.26685	-772.43439	1352.71350	-450.34872	-1040.63110	976.61621	-566.45386	-528.26117	966.56018	-370.04675	-1035.41614	819.88464	-705.48529	-485.23895	762.12415	-465.43158	-858.16119	813.06995	-584.58630	-745.67084	902.32111	-368.89670	-604.65192	826.88629	-575.08051	-865.83490	414.29807	-389.79330	-627.35394	417.00754	-647.45184	-844.76843	126.15527	-221.12517	-652.51923	88.87298	-707.02069	
408	4.070	-640.00549	1408.68213	-791.90912	-752.64178	1586.73718	-526.65723	-801.58173	1505.96948	-661.29205				-939.80615	1292.82068	-542.14783	-592.97900	1299.94861	-464.03979	-746.49847	1173.62012	-627.76563	-772.20697	1352.34241	-459.18829	-1037.89502	974.67133	-574.63940	-527.65900	965.79456	-378.69565	-1032.29517	819.22504	-714.56934	-483.97467	761.59564	-475.97150				-744.84052	900.98724	-378.77933	-603.21796	827.43512	-588.57275	-865.79565	413.07724	-399.57422	-627.33282	416.56421	-655.88147	-845.29810	128.19638	-223.81642	-653.11963	88.07356	-711.63684	
409	4.080	-639.33228	1409.55090	-800.58173	-752.26630	1586.92090	-534.43384	-801.33636	1506.27881	-669.38617				-938.56903	1292.11523	-550.52209	-592.22931	1300.27417	-473.79794	-745.36230	1173.58325	-636.43182	-770.97229	1352.14221	-467.47699	-1035.49121	973.72363	-583.30829	-526.14722	964.85168	-389.05685	-1028.75134	817.63806	-722.25653	-483.23441	761.67389	-486.44312	-856.30579	811.20020	-605.46661	-745.45715	900.22656	-389.80383				-865.79694	412.62592	-410.53574	-626.96442	416.92639	-664.55017	-845.51630	131.58502	-228.75743	-654.55255	86.28651	-714.97961	
410	4.090	-638.59106	1410.47192	-809.03723	-751.76440	1586.90906	-542.28546	-800.90460	1506.89429	-677.36182				-937.82849	1292.21179	-560.00299	-590.95776	1300.27295	-481.92529	-744.10333	1174.29871	-646.54352	-770.86401	1352.46375	-476.31067	-1032.73120	972.20502	-590.73615	-525.70941	963.95300	-400.20514	-1025.07336	816.19031	-728.89539	-482.36194	761.51416	-497.80167	-855.44946	810.26447	-615.20117	-745.11444	900.19305	-399.29349	-601.51111	828.65240	-609.19366	-865.94250	411.66254	-422.49484	-627.91791	417.73865	-673.57129	-845.95343	135.05275	-233.79713	-653.64612	86.00772	-719.49377	
411	4.100	-637.84412	1411.48633	-817.23590	-751.24744	1587.51697	-550.35406	-800.43060	1507.78357	-685.68488				-936.99335	1292.31567	-568.95154	-589.90106	1300.53552	-491.23047	-742.76282	1175.26624	-655.87909	-769.94287	1352.77588	-485.24838	-1030.29150	971.81830	-599.44220	-524.98773	964.22162	-410.31931	-1021.24347	814.69000	-736.14618	-480.85931	761.92157	-509.34308	-854.32471	810.06763	-626.00903	-745.01440	899.95923	-409.90540				-866.15552	410.88129	-434.11456	-628.68506	419.51785	-683.42065	-846.25769	138.81483	-239.56137	-652.92072	85.90919	-723.41602	
412	4.110	-637.40503	1413.16309	-826.34723	-750.46912	1587.98657	-558.08887	-799.94836	1508.66345	-693.49750				-935.90955	1292.65063	-578.06586	-589.35272	1300.64392	-498.74170	-741.28662	1176.59839	-665.30286	-768.31525	1352.60474	-493.38791	-1027.04590	971.02252	-607.15436	-523.63641	964.19800	-420.62305	-1017.16449	813.63757	-743.40112	-479.27393	763.29474	-520.74841	-853.21484	810.07739	-636.00208	-744.18750	900.10883	-419.73505	-599.76624	830.18915	-629.66052	-866.54474	410.23706	-447.97778	-628.32367	419.56625	-692.66656	-846.92737	142.62552	-245.18320	-652.98718	84.43814	-726.68060	
413	4.120	-636.82959	1414.74329	-834.98914	-749.53961	1589.47900	-567.00403	-799.31451	1509.97302	-701.91766				-935.12250	1293.34802	-586.67548	-588.23547	1301.97473	-507.81454	-739.82983	1178.13818	-674.40765	-768.48602	1353.95154	-503.22662	-1023.83643	970.86359	-614.53680	-522.66516	964.34229	-431.47321	-1013.00635	812.69629	-750.22742	-477.82986	763.70380	-532.41870	-852.02069	810.38843	-646.56207	-744.58588	901.30872	-430.53894				-867.29285	409.69836	-462.52313	-628.43329	419.42847	-701.57990	-847.91309	146.31316	-251.34387	-652.50970	84.37211	-729.55920	
